<svg xmlns="http://www.w3.org/2000/svg" viewBox="0 0 5247.52 1024.7"><defs><style>.cls-1{fill:#231f20;}.cls-2{fill:#0079c1;}</style></defs><g id="Page_1" data-name="Page 1"><g id="Layer_1" data-name="Layer 1"><path class="cls-1" d="M1585.91,1266.93h-23.17V1054.2h-47.17V1031h117.51v23.17h-47.17v212.73Zm67.18-235.9h22.51v78.64a63.67,63.67,0,0,1,23.72-18.36,75.84,75.84,0,0,1,31-6.14q37.58,0,54.75,21.45t17.2,69.79v90.52h-22.51v-90.85q0-38.74-11.67-53.86t-39-15.15c-10.39,0-19.46,2.1-27.32,6.25a46.3,46.3,0,0,0-18.52,17.86,50.4,50.4,0,0,0-5.92,16.64c-1.16,6.19-1.71,17-1.71,32.46v86.65h-22.51V1031Zm360.32,154.06H1852.55q2.07,29.12,21.07,47.06t47.28,17.92a65.07,65.07,0,0,0,36.11-10.4,68.4,68.4,0,0,0,24.77-29h25.94q-12.29,29.63-34.56,45.4t-51.6,15.87q-38.89,0-65.8-27.7t-26.88-66.58q0-40.73,26.33-67.24t67.29-26.6q40.23,0,65.53,27.65t25.38,72v1.6Zm-25.27-19.3q-6.47-30-23.83-45.23t-45.18-15.15q-25.87,0-43.91,16.31t-22,44.07Zm148.75,101.14V1031h116.46v23.17h-93.62v82.62h93.62v23.33h-93.62v106.78Zm174.3-199.12h-22.84V1031h22.84v36.78Zm-22.84,199.12V1088.71h22.84v178.22Zm82.62,0H2347.8V1088.71h21.56v20.57c5.59-7.91,11.73-13.66,18.36-17.36a50.48,50.48,0,0,1,23.28-5.81l.17,24.77q-21.57,1.9-30.86,12.89t-9.34,35.55v107.61Zm48.77-56.07h23.5v.66q0,16.68,9.57,27.6t23.66,11c9,0,16.37-2.82,22.34-8.41a28.13,28.13,0,0,0,8.91-21.23q0-12.78-7-20.57t-25.54-14.6c-19.74-7-32.68-14.21-38.71-21.51s-9.07-17.2-9.07-29.53a47.18,47.18,0,0,1,15.15-35.45c10.07-9.73,22.34-14.6,36.66-14.6,15.27,0,27.32,4.32,36.28,12.94s13.77,20.74,14.43,36.17h-24.44q-.82-12.69-8-19.63c-4.81-4.65-11.39-7-19.68-7a25.11,25.11,0,0,0-18.64,7.52,25.58,25.58,0,0,0-7.46,18.75,27,27,0,0,0,3.09,13.38c2.05,3.59,5.42,6.85,10.18,9.79q6.47,4.07,18.91,7.79t16.59,5.48q16.66,7.13,24.55,19c5.25,7.91,7.85,17.92,7.85,30.14q0,23-16,38.1c-10.68,10-24.28,15-40.65,15q-25.12,0-40.37-16.42t-16-44.35Zm156,56.07V1111.71h-33.84v-23h33.84V1031h22.84v57.68h33.84v23h-33.84v155.22Zm173.53,0V1031h34.17l81.62,205.1,81.34-205.1h34.18v235.9h-22.18V1058.57l-82.94,208.36h-20.91l-82.94-208.36v208.36Zm292.41-199.12h-22.84V1031h22.84v36.78Zm-22.84,199.12V1088.71h22.84v178.22Zm202.34-123.48q-10.55-19.41-25.66-28.75t-36.06-9.29q-27.52,0-46.72,20.9T3093.54,1178q0,30.76,19.3,51.43t47.61,20.68c13.82,0,26-3.43,36.61-10.23s18.58-16.32,24.11-28.65h25.27q-10.36,29-32.57,44.9T3161.56,1272q-38.74,0-65.37-27.48t-26.65-66.19q0-39.48,27-67t65.69-27.48q29,0,51.09,15.65c14.77,10.4,25.77,25,33.13,44Zm81.34,123.48h-23.17V1088.71h21.57v20.57c5.58-7.91,11.72-13.66,18.35-17.36a50.54,50.54,0,0,1,23.28-5.81l.17,24.77q-21.57,1.9-30.86,12.89t-9.34,35.55v107.61Zm74.37-89.3q0,30.86,19.58,51.64c13.11,13.88,29.31,20.8,48.77,20.8q28.62,0,48.11-20.8t19.41-51.92q0-31.61-19.69-51.92t-49.93-20.35q-27.21,0-46.73,20.9t-19.52,51.65Zm-24,.38q0-39.23,26.87-67.07t63.7-27.87q38.65,0,66,27.37t27.32,65.31q0,39.81-26.71,68t-64.81,28.2q-38.73,0-65.53-27.64T3352.89,1178Zm214.38,88.92V1031h116.46v23.17h-93.62v82.62h93.62v23.33h-93.62v106.78Zm174.3-199.12h-22.84V1031h22.84v36.78Zm-22.84,199.12V1088.71h22.84v178.22Zm59.78-178.22h22.17V1109a65.48,65.48,0,0,1,24.39-18c9.24-3.93,19.8-5.86,31.69-5.86q19.57,0,34.89,7.3a57.94,57.94,0,0,1,24.22,20.9,66.67,66.67,0,0,1,8.85,22.45q2.66,12.86,2.65,38v93.12h-22.5v-99.75q0-31.61-12.06-45.85t-38.65-14.26c-10.4,0-19.47,2.1-27.32,6.25a46.24,46.24,0,0,0-18.52,17.86,50.4,50.4,0,0,0-5.92,16.64c-1.16,6.19-1.72,17-1.72,32.46v86.65h-22.17V1088.71Zm335.71,88q0-28.38-20.24-49.49t-46.67-21.13q-28.7,0-48.83,21.13t-20.18,52.42q0,29.78,20.07,50.26t48.28,20.52q27.21,0,47.39-21.62t20.18-52.09Zm0,62c-7.13,10.29-16.75,18.3-28.92,24.17a90.19,90.19,0,0,1-39.32,8.73q-39.15,0-65.25-26.82t-26.1-66.19q0-40,26.66-66.91t66.69-26.87a84.71,84.71,0,0,1,37.71,8.35,75.73,75.73,0,0,1,28.53,24v-28.53h22.34v178.22h-22.34v-28.2Zm58.45-150h22.18V1109a65.37,65.37,0,0,1,24.38-18c9.24-3.93,19.8-5.86,31.69-5.86q19.58,0,34.89,7.3a57.94,57.94,0,0,1,24.22,20.9,66.67,66.67,0,0,1,8.85,22.45q2.65,12.86,2.65,38v93.12H4299v-99.75q0-31.61-12.06-45.85t-38.65-14.26c-10.4,0-19.47,2.1-27.32,6.25a46.3,46.3,0,0,0-18.52,17.86,50.4,50.4,0,0,0-5.92,16.64c-1.16,6.19-1.71,17-1.71,32.46v86.65h-22.18V1088.71Zm327.75,54.74q-10.53-19.41-25.66-28.75t-36.05-9.29q-27.54,0-46.73,20.9T4372.79,1178q0,30.76,19.3,51.43t47.61,20.68c13.83,0,26-3.43,36.61-10.23s18.58-16.32,24.11-28.65h25.27q-10.36,29-32.57,44.9c-14.76,10.57-32.24,15.87-52.31,15.87q-38.73,0-65.36-27.48t-26.65-66.19q0-39.48,27-67t65.69-27.48q28.95,0,51.1,15.65t33.12,44Zm233.3,41.64H4572.86q2.07,29.12,21.07,47.06t47.28,17.92a65.07,65.07,0,0,0,36.11-10.4,68.4,68.4,0,0,0,24.77-29H4728q-12.28,29.63-34.57,45.4T4641.87,1272q-38.9,0-65.8-27.7t-26.88-66.58q0-40.73,26.33-67.24t67.29-26.6q40.23,0,65.53,27.65t25.38,72v1.6Zm-25.27-19.3q-6.46-30-23.83-45.23t-45.18-15.15q-25.87,0-43.91,16.31t-22,44.07Zm77.31-10.34v89h32.57q28.69,0,42.35-10.84c9.13-7.25,13.72-18.42,13.72-33.4s-4.65-26.21-13.94-33.62-23.33-11.12-42.13-11.12Zm0-101.91V1133h13.93q34.34,0,48.05-9.46t13.72-31.08q0-20.23-13.27-29.53t-42.47-9.34ZM4763.58,1031h43.91c26.71,0,46.28,5,58.84,15.15s18.8,25.83,18.8,47.23q0,16.17-6.31,27.7a49.15,49.15,0,0,1-19,18.8q19.06,8,28.64,22.29t9.57,35.06q0,36-19.86,52.81t-62.48,16.86h-52.15V1031Zm315.75,145.66q0-28.38-20.24-49.49t-46.67-21.13q-28.69,0-48.83,21.13t-20.18,52.42q0,29.78,20.07,50.26t48.28,20.52q27.21,0,47.39-21.62t20.18-52.09Zm0,62c-7.13,10.29-16.75,18.3-28.92,24.17a90.19,90.19,0,0,1-39.32,8.73q-39.15,0-65.25-26.82t-26.1-66.19q0-40,26.66-66.91t66.68-26.87a84.72,84.72,0,0,1,37.72,8.35,75.81,75.81,0,0,1,28.53,24v-28.53h22.34v178.22h-22.34v-28.2Zm58.45-150H5160V1109a65.37,65.37,0,0,1,24.38-18c9.24-3.93,19.8-5.86,31.69-5.86q19.57,0,34.89,7.3a57.94,57.94,0,0,1,24.22,20.9,66.67,66.67,0,0,1,8.85,22.45q2.66,12.86,2.65,38v93.12h-22.5v-99.75q0-31.61-12.06-45.85t-38.65-14.26c-10.4,0-19.47,2.1-27.32,6.25a46.24,46.24,0,0,0-18.52,17.86,50.4,50.4,0,0,0-5.92,16.64c-1.16,6.19-1.71,17-1.71,32.46v86.65h-22.18V1088.71Zm208.36,178.22H5323.3V1031h22.84v140.29l64.31-82.61h26.27l-64.64,82.61,78.57,95.61h-28.86l-75.65-92.84v92.84Z" transform="translate(-203.14 -889.77)"/><path class="cls-1" d="M1594.49,1634.23q-46.38,0-66-11.06-21-11.91-20.93-40.39c0-11.39,3-24.31,9.07-38.81,1.72-4,5.23-11.46,10.66-22.32l6.63,3.91c-4.38,10.07-7.29,17.81-8.61,23.31a62.48,62.48,0,0,0-2.06,15.5q0,21.15,22.32,29.67,16.7,6.45,48.87,6.42h82.65c20.6,0,37.81-2.65,51.79-8q25-9.54,25-26.82a29.13,29.13,0,0,0-9.47-21.92c-3.25-3.11-9.54-7.08-18.81-12l-6.42,6-22.91-17.48c-8-6.76-12-12-12-15.7q0-33.37,16.29-52.38,15.11-17.48,52.18-31.45l54.7-21.33v33.58L1767,1446.62c-22.12,7.49-37.75,13.51-46.76,18-7.68,3.91-11.45,7-11.45,9.34,0,3,4.1,7.55,12.38,13.78,5.16,3.84,10.4,7.75,15.69,11.59,11.39,8.67,21.73,17.21,30.86,25.62a306.1,306.1,0,0,1,22.12,22.52c4.31,4.77,11.13,13,20.6,24.64a144,144,0,0,0,17.81,18.41c8,6.62,14.77,9.93,20.6,9.93h25.43v33.77h-23.91q-15.89,0-33.38-16.35c-5.62-5.3-13.77-14.71-24.23-28.28-6.29-8.15-10.2-13-11.66-14.77a198.68,198.68,0,0,0-14.7-15.3c0,23-7.22,41-21.52,53.91q-23.15,20.76-68.68,20.79Zm490.32,0h-224.1v-33.77h158.14c-13.24-10.2-24.37-18.21-33.37-23.91q-16.89-10.62-30.86-15.49a96,96,0,0,0-31.86-5.43,145.09,145.09,0,0,0-19.93,1.39c3.71-9.61,8.68-17.29,14.7-23.12q13.21-12.62,33.38-12.58c13.18,0,28.81,6.43,46.75,19.34q13.41,9.73,43.64,36.89,23.55,21.15,31.86,22.91h11.65v33.77Zm-73.57,46-14.31,28.15-31.85-16.29,14.77-28.15,31.39,16.29Zm-6.56,52.19-14.37,28.34L1958.66,1744l15-28.34,31.06,16.69ZM1967,1698.21,1952.5,1726l-32-16.49,15.16-27.94,31.39,16.69Zm289.53-75.63q0,32-23.71,63.64-26.33,35.27-60.92,35.3a127.47,127.47,0,0,1-26.36-2.92c-6.62-1.39-15.17-3.91-25.83-7.35q-12.61-4.47-25.23-8.74l3.31-6.82c7.29,1.72,14.84,3.51,22.85,5.36a95,95,0,0,0,21.39,2.78,89.22,89.22,0,0,0,44.83-12q16.5-9.54,33-27.55,8.34-9.13,23.64-29.74-26.11,0-39.13-8.34-14.8-9.43-14.77-31.19a76.12,76.12,0,0,1,9.34-37.09c7.21-13.17,16.42-19.8,27.54-19.8s19.34,6.56,24.24,19.61c3.84,10.26,5.83,24.43,5.83,42.71v22.12Zm-12.25-21.19c-2.85-12.39-6.29-21-10.27-25.76a16,16,0,0,0-12.78-6.23,13.82,13.82,0,0,0-9.47,3.58,11.69,11.69,0,0,0-4,9.07c0,6.29,2.85,11.12,8.54,14.44s15,4.9,28,4.9Zm168.8,32.84H2243v-33.77h147.62a176.91,176.91,0,0,0-31-35.83q-17.47-15.2-47.15-32.84l-6.42,6-22.91-17.48c-8-6.76-12-12-12-15.7q0-33.37,16.29-52.38,15.11-17.48,52.18-31.45l54.7-21.33v33.58l-40.52,13.57c-16.16,5.3-29.27,10.13-39.21,14.51-12.65,5.56-19,9.86-19,12.84s4.1,7.55,12.38,13.78c5.23,3.84,10.46,7.75,15.76,11.59a361.19,361.19,0,0,1,51.39,46.82q23.64,26.11,38,54.3v33.77Zm351.18-98.4a69.39,69.39,0,0,1-1.19,12.71c-.79,4.37-1.26,7.42-1.52,9.21a51.21,51.21,0,0,0-16.22-13.78,40.71,40.71,0,0,0-19.08-5q-16.89,0-35.56,19.6c-11.32,12-17,21.59-17,28.74,0,2.45,1.39,4.31,4.17,5.5s7.55,1.85,14.44,1.85h15.5c9.33,0,16.22.07,20.66.27a146.64,146.64,0,0,1,16,1.85c6.23,1.06,9.34,5.76,9.34,14.17q0,48.67-42.51,74.11-39,23.34-105.56,23.31c-23,0-40.6-4.51-52.78-13.38q-19.77-14.6-19.8-43.91a148.55,148.55,0,0,1,6.62-42.25,235.43,235.43,0,0,1,14-35.29c.4-.8,4.44-8.48,12.25-23.12l8.15,3.32c-8.15,14.5-14.44,28-18.74,40.66s-6.49,23.7-6.49,33.44q0,23.64,16.35,35.5t46.89,11.85c15.5,0,33.58-3.11,54.1-9.34a272.53,272.53,0,0,0,47.55-19c14.11-7.36,21.13-12.79,21.13-16.3,0-2.45-.8-4.1-2.39-4.83s-4.23-1.19-7.88-1.19H2679.3a20.8,20.8,0,0,1-14.77-6c-4.3-4-6.42-9.14-6.42-15.49q0-13,10.66-35.3c7.82-16.16,17.15-29.74,28.15-40.6,13.17-13,26.49-19.53,39.8-19.53,8.54,0,15.23,2.58,20.13,7.75s7.41,12,7.41,20.53Zm104,98.4h-27.16c-8.8,0-15.82-3.57-21.19-10.72-4.63-6.16-8.14-15.44-10.53-27.69a399,399,0,0,1-5.56-45.43c-.73-14.63-1.59-29.6-2.38-45s-2-27-3.31-35-3.18-14.44-5.57-19.47a50.42,50.42,0,0,0-11.79-16.29L2804.6,1397q7.55,23.25,10.66,55.63,2,20.26,3.9,95.5,3.48,34.47,10.07,44.23c3.64,5.43,7.55,8.15,11.85,8.15h27.16v33.77Zm152.91-32.84c0,7.55-2.39,15.89-7,25-5,10-10.07,15-15.1,15-5.3,0-15.23-3.38-29.74-10.07a278.81,278.81,0,0,1-33.71-18.28q-22.54,12.81-32.84,16.49c-8.61,3.11-18.88,4.7-30.6,4.7h-17.48v-33.77h17.48a94.77,94.77,0,0,0,15.3-1.26c4.9-.86,11.59-2.38,20-4.57q-5.07-3.68-10.13-7.55c-3.58-3.24-5.43-6.42-5.43-9.53a27.6,27.6,0,0,1,.33-4.84,26.34,26.34,0,0,1,2.58-5.83l19.21-33.57c2.58-4.5,5-7.68,7.08-9.41a25.24,25.24,0,0,1,8.88-4.17c-8.94-6.09-13.38-10.39-13.38-13s2.78-9.27,8.48-20q3-5.46,8.94-16.09,12.4,11.82,31.25,34.31c15.9,18.93,28.48,35.76,37.62,50.66q18.27,29.49,18.28,45.76Zm-68.35-42.06c0-5.56-1.12-10-3.44-13.17-2.72-3.91-7.09-5.83-13.05-5.83a26.94,26.94,0,0,0-16.69,5.89c-5.16,4-7.74,8.68-7.74,14.24q0,7.95,23.7,21A54.88,54.88,0,0,0,2948,1571c3.24-3.91,4.83-7.81,4.83-11.66Zm46.76,44.44c0-4.57-3.58-11.59-10.86-21.19a208.33,208.33,0,0,0-16.69-19.4,40.24,40.24,0,0,1-4,17.74,29.77,29.77,0,0,1-11.12,12.72c7.75,4,15.56,7.95,23.44,11.85,6.49,2.85,11.06,4.24,13.78,4.24a4.89,4.89,0,0,0,3.9-1.72,6,6,0,0,0,1.53-4.24Zm306.94,30.46h-27.75c-9.33,0-17.54-8-24.63-23.9-5.3-11.86-9.6-27.22-12.78-46a46.74,46.74,0,0,1-14.77,16.88,33.46,33.46,0,0,1-18.81,6c-14.9,0-27.28-1.06-37.15-3s-14.83-4.56-14.83-7.68c0-11.06,7.22-23.44,21.72-37s32.58-25.3,54.3-35.36c-.26-1.06-.79-3.78-1.65-8.15a63,63,0,0,1-1.26-8.14c0-4.44,1.52-9.34,4.5-14.77a81.37,81.37,0,0,1,9.67-13.58q2,12,4,23.25c1.39,7.55,2.92,15.29,4.77,23.31l5.83,33.37q4.86,27.53,8.74,40.73c4,13.44,8.15,20.2,12.38,20.2h27.75v33.77Zm-67.68-86.75-3.71-21.12c-11.25,4-20.13,8.14-26.55,12.51A55.77,55.77,0,0,0,3192.2,1556a42.38,42.38,0,0,0,9.54,2.72,88,88,0,0,0,15,1c7.75,0,15.1-4.1,22.12-12.25Zm280.52-74.5-14.76,28.14-31.39-16.29,14.3-28.34,31.85,16.49Zm123.38,161.25H3409.55a57.69,57.69,0,0,1-20-3.51,98.3,98.3,0,0,1-16.89-8.74,47.68,47.68,0,0,1-16.29,9.6c-5.43,1.73-14.11,2.65-26,2.65h-37.41v-33.77h37.41c10.53,0,18-.93,22.52-2.72,7.48-3,11.26-8.94,11.26-17.88a93.07,93.07,0,0,0-.67-11.32c-.46-3.84-1.12-8-2-12.52l7.95-11.65c4.57,17.61,10.73,31.19,18.61,40.73q12.61,15.39,29.73,15.36,16.29,0,38.21-7.42,23.64-7.95,40.73-20.13c18.48-13.18,29.8-21.12,34-23.71,10.47-6.69,20-11.45,28.48-14.3a97.42,97.42,0,0,1,31.45-4.9c17.62,0,30.87,5.16,39.81,15.36,8.27,9.41,12.38,22.72,12.38,39.74v49.13Zm-31.59-48.74c0-6.29-4-11.26-11.85-14.83s-17.09-5.3-27.55-5.3c-12.92,0-28.61,4.31-46.95,13-14.64,7.35-29.21,14.77-43.65,22.12h89.41c14.1,0,24.37-1.26,30.86-3.71s9.73-6.22,9.73-11.26ZM3837,1634.23q0,21.27-18.28,44.24a148.81,148.81,0,0,1-39.53,34.7q-22.54,14-37.09,14a120.54,120.54,0,0,1-28.94-3.9,257.18,257.18,0,0,1-28.27-9.08q-14-5.25-27.75-10.52l3.31-7.75q12.81,2.58,26.62,5.16a139.42,139.42,0,0,0,25.17,2.59q24.82,0,51.78-15.9A148,148,0,0,0,3805.7,1651c11.52-14.84,17.28-28.15,17.28-40.07q0-15.3-8.94-32.18a137.08,137.08,0,0,0-20.2-28l11.06-30.46c10.6,9.8,18.48,19.67,23.51,29.47q8.53,16.68,8.54,37.28v47.15Zm100.13-220.79-15.16,27.88-31.39-16.62L3905,1397l32,16.49Zm-44.63,17.42L3877.68,1459l-31.39-16.29,14.3-28.15,31.86,16.29Zm50.79,203.37H3823.38v-33.77h103.37a123.71,123.71,0,0,0-4-32.38c-6.75,2.18-11.92,3.7-15.49,4.63a65,65,0,0,1-15.77,2.32c-9.4,0-17.15-2.38-23-7.15-6.89-5.43-10.33-13.31-10.33-23.51,0-17.95,3.24-33.71,9.73-47.15,7.22-15,16.69-22.52,28.35-22.52q23.64,0,36.42,37.09,10.73,30.69,10.66,72v50.46Zm-31.59-100.92a51.05,51.05,0,0,0-8.74-14.17c-5.43-6.43-10.59-9.67-15.5-9.67a10.61,10.61,0,0,0-8.67,4.37,16.41,16.41,0,0,0-3.38,10.33c0,10.4,5.7,15.56,17.09,15.56a27.86,27.86,0,0,0,9.47-1.79,46.32,46.32,0,0,0,9.73-4.63Zm232.78,100.92q-46.4,0-66-11.06-21-11.91-20.93-40.39c0-11.39,3-24.31,9.08-38.81,1.72-4,5.23-11.46,10.66-22.32l6.62,3.91c-4.37,10.07-7.28,17.81-8.61,23.31a62.45,62.45,0,0,0-2.05,15.5c0,14.1,7.41,24,22.32,29.67q16.68,6.45,48.87,6.42h82.64c20.6,0,37.82-2.65,51.79-8q25-9.54,25-26.82a29.09,29.09,0,0,0-9.47-21.92c-3.24-3.11-9.53-7.08-18.8-12l-6.43,6-22.91-17.48c-8-6.76-12-12-12-15.7q0-33.37,16.29-52.38,15.1-17.48,52.19-31.45l54.7-21.33v33.58l-40.53,13.57c-22.12,7.49-37.75,13.51-46.75,18-7.69,3.91-11.46,7-11.46,9.34,0,3,4.11,7.55,12.38,13.78,5.17,3.84,10.4,7.75,15.7,11.59,11.39,8.67,21.72,17.21,30.86,25.62a308.13,308.13,0,0,1,22.12,22.52c4.3,4.77,11.12,13,20.59,24.64a144.73,144.73,0,0,0,17.82,18.41c7.94,6.62,14.76,9.93,20.59,9.93h25.43v33.77h-23.9q-15.9,0-33.38-16.35c-5.63-5.3-13.78-14.71-24.24-28.28-6.29-8.15-10.2-13-11.65-14.77a199.18,199.18,0,0,0-14.71-15.3c0,23-7.21,41-21.52,53.91q-23.14,20.76-68.67,20.79Zm361.25-179.46-14.7,28.08-31.46-16.29,14.37-28.08,31.79,16.29Zm15.56,179.46H4410.65v-33.77h96.42c0-15.3-1.79-26.89-5.43-35-2.45-5.49-8.55-13.57-18.21-24l15.09-31.58q14,17.58,17.49,27.54c3.44,9.94,5.23,26.43,5.23,49.47v47.35Zm91.19,0h-27.15c-8.81,0-15.83-3.57-21.19-10.72-4.64-6.16-8.15-15.44-10.53-27.69a398.78,398.78,0,0,1-5.57-45.43c-.72-14.63-1.59-29.6-2.38-45s-2-27-3.31-35-3.18-14.44-5.56-19.47a50.57,50.57,0,0,0-11.79-16.29l23.84-37.62q7.54,23.25,10.66,55.63,2,20.26,3.91,95.5,3.48,34.47,10.06,44.23c3.65,5.43,7.55,8.15,11.86,8.15h27.15v33.77Zm97,0h-110.6v-33.77h96.42c0-15.3-1.78-26.89-5.43-35-2.45-5.49-8.54-13.57-18.21-24l15.1-31.58q14,17.58,17.49,27.54c3.44,9.94,5.23,26.43,5.23,49.47v47.35Zm-19.8,47.15-15.1,28.08-31.46-16.29,14.37-28.34,32.19,16.55Zm266.94-196-14.5,27.68-30.26-16.62,14-27,30.79,16Zm72.19,148.8q0,43.21-25.43,63.64-27.32,21.86-88.28,21.92c-25.83,0-45.63-4.57-59.34-13.57-15-10-22.51-25.23-22.51-45.83a145.61,145.61,0,0,1,4.1-33.77,235.51,235.51,0,0,1,11.06-34.31c2.85-7,7.75-17.74,14.7-32.25l7.82,3.51c-9.07,18.61-15.1,33.31-17.95,44a113.74,113.74,0,0,0-4.37,29.54q0,24,17.15,36.55c11.46,8.35,27.75,12.52,49,12.52q36.66,0,65-13c23.45-10.73,35.1-25.69,35.1-45a113.25,113.25,0,0,0-5.82-36.89,81.12,81.12,0,0,0-14.31-26.36l16.09-39.8a101.72,101.72,0,0,1,14.18,32.06c2.58,10.86,3.84,25.23,3.84,43.24v33.77Zm97,0H5015.2v-33.77h96.42c0-15.3-1.79-26.89-5.43-35-2.45-5.49-8.54-13.57-18.21-24l15.1-31.58q14,17.58,17.48,27.54c3.45,9.94,5.23,26.43,5.23,49.47v47.35Zm-1,38.81-15.1,27.88-31.46-16.69,14.57-27.68,32,16.49Zm-44.63,17.42-14.71,28.14L5034,1702.31l14.37-28.14,31.79,16.29ZM5208,1634.23h-95.82v-33.77h76.22l-23-164.57-10.14-4.83a131.2,131.2,0,0,1,2.32-25.1,119.56,119.56,0,0,1,7-22.78l2.91,2.12c0,7.48,4.18,13.11,12.59,16.89,6.49,2.58,13,5.16,19.6,7.74a155.78,155.78,0,0,1-1.52,20.73c-1.06,7.42-2.26,12.92-3.71,16.49l-9.34-3.11L5208,1596.15v38.08Zm171.72-11.65q0,32-23.71,63.64-26.32,35.27-60.92,35.3a127.47,127.47,0,0,1-26.36-2.92c-6.62-1.39-15.17-3.91-25.83-7.35q-12.61-4.47-25.23-8.74l3.31-6.82c7.29,1.72,14.84,3.51,22.85,5.36a95,95,0,0,0,21.39,2.78,89.22,89.22,0,0,0,44.83-12q16.5-9.54,33-27.55,8.36-9.13,23.64-29.74-26.11,0-39.13-8.34-14.81-9.43-14.77-31.19a76.12,76.12,0,0,1,9.34-37.09c7.21-13.17,16.42-19.8,27.55-19.8s19.33,6.56,24.23,19.61c3.84,10.26,5.83,24.43,5.83,42.71v22.12Zm-12.25-21.19c-2.85-12.39-6.29-21-10.27-25.76a16,16,0,0,0-12.78-6.23A13.82,13.82,0,0,0,5335,1573a11.69,11.69,0,0,0-4,9.07c0,6.29,2.85,11.12,8.54,14.44s15,4.9,27.95,4.9Zm77.81-16.63a82.26,82.26,0,0,1-5.63,30.07c-1.92,5.17-6.09,13.38-12.58,24.63l-3.51-2c.4-3.71.73-8.08,1.06-13s.53-8.21.53-9.87c0-13.44-1.13-32.25-3.25-56.35s-4.7-49.34-7.68-75.57q-2.68-23.94-6-48.74c2.59-5.69,5.5-11.85,8.81-18.41s6.42-12.84,9.4-18.61q3.09,22.07,7.88,60.53c3.18,25.56,5.63,48.68,7.49,69.27q3.48,38.34,3.44,58Z" transform="translate(-203.14 -889.77)"/><path class="cls-2" d="M929.84,1031.3c-24.75-81.91-100.78-141.53-190.73-141.53s-166,59.62-190.78,141.53a199.43,199.43,0,0,0-126.67,239.84H549.43l-6.25-10.78a81.88,81.88,0,0,1,126.71-100.85,82.53,82.53,0,0,1,10.56-13.33,81.86,81.86,0,1,1,117.33,0,82.67,82.67,0,0,1,10.49,13.33A81.89,81.89,0,0,1,935,1260.36L755.33,1571.5l67.77,117.43,213.58-369.83a198.85,198.85,0,0,0,26.67-99.69c0-87-55.75-160.92-133.51-188.11Z" transform="translate(-203.14 -889.77)"/><path class="cls-2" d="M257.07,1535.78c-58.55,62.37-72.2,158-27.21,236s134.66,114,217.93,94.46a199.34,199.34,0,0,0,229.72,21.53A201.83,201.83,0,0,0,718.86,1856L655,1745.28l-6.21,10.78a81.83,81.83,0,0,1-150.65-59.28,84.21,84.21,0,0,1-16.86-2.41A81.86,81.86,0,1,1,422.6,1592.7a83.93,83.93,0,0,1,6.23-15.78,81.87,81.87,0,0,1,24.05-160.13l359.23,0,67.83-117.49H452.88a198.75,198.75,0,0,0-99.67,26.72c-75.34,43.51-111.49,128.78-96.14,209.71Z" transform="translate(-203.14 -889.77)"/><path class="cls-2" d="M1030.34,1866.19a199.28,199.28,0,0,0,217.94-94.46c45-77.93,31.33-173.57-27.18-236a199.29,199.29,0,0,0-144.36-229.66l-63.91,110.72h12.46a80.65,80.65,0,0,1,40.87,11A81.84,81.84,0,0,1,1049.3,1577a84.35,84.35,0,0,1,6.28,15.73,81.93,81.93,0,1,1-58.67,101.67,82.1,82.1,0,0,1-16.87,2.41,81.87,81.87,0,0,1-150.69,59.28L649.82,1445H514.12l213.52,369.86a198.51,198.51,0,0,0,73,72.89c75.33,43.53,167.27,32.22,229.67-21.53Z" transform="translate(-203.14 -889.77)"/></g></g></svg>